<svg width="44" height="21" viewBox="0 0 44 21" fill="none" xmlns="http://www.w3.org/2000/svg">
<path d="M44 0.611664L11.8101 18.5566C9.14073 20.0352 6.89855 20.777 5.08536 20.777C3.03202 20.777 1.5415 19.836 0.617497 17.9517C0.0363257 16.742 -0.134176 15.2082 0.104159 13.3479C0.342495 11.4876 0.976833 9.50734 2.00351 7.39984C2.85968 5.69559 4.26219 3.45607 6.21471 0.678873C5.55244 2.04387 5.06679 3.54262 4.77736 5.11471C4.26403 7.98312 4.72603 10.0882 6.16337 11.4324C6.84721 12.0589 7.78772 12.3733 8.98673 12.3733C9.94374 12.3733 11.0217 12.1717 12.2208 11.7685L44 0.611664Z" fill="white"/>
</svg>
